<svg width="100" height="24" viewBox="0 0 100 24" fill="none" xmlns="http://www.w3.org/2000/svg">
<path d="M33.752 22.288C32.456 22.288 31.304 21.992 30.296 21.4C29.304 20.792 28.512 19.976 27.92 18.952C27.344 17.928 27.056 16.768 27.056 15.472C27.056 14.192 27.344 13.04 27.92 12.016C28.496 10.992 29.288 10.192 30.296 9.616C31.304 9.024 32.456 8.728 33.752 8.728C34.632 8.728 35.456 8.888 36.224 9.208C36.992 9.512 37.656 9.936 38.216 10.48C38.792 11.024 39.216 11.656 39.488 12.376L37.112 13.48C36.84 12.808 36.4 12.272 35.792 11.872C35.2 11.456 34.52 11.248 33.752 11.248C33.016 11.248 32.352 11.432 31.76 11.8C31.184 12.152 30.728 12.656 30.392 13.312C30.056 13.952 29.888 14.68 29.888 15.496C29.888 16.312 30.056 17.048 30.392 17.704C30.728 18.344 31.184 18.848 31.76 19.216C32.352 19.584 33.016 19.768 33.752 19.768C34.536 19.768 35.216 19.568 35.792 19.168C36.384 18.752 36.824 18.2 37.112 17.512L39.488 18.64C39.232 19.328 38.816 19.952 38.24 20.512C37.68 21.056 37.016 21.488 36.248 21.808C35.48 22.128 34.648 22.288 33.752 22.288ZM42.1387 22V9.016H44.8507V22H42.1387ZM42.1387 7.24V4.12H44.8507V7.24H42.1387ZM48.0215 22V9.016H50.6135V11.632L50.3735 11.248C50.6615 10.4 51.1255 9.792 51.7655 9.424C52.4055 9.04 53.1735 8.848 54.0695 8.848H54.8615V11.32H53.7335C52.8375 11.32 52.1095 11.6 51.5495 12.16C51.0055 12.704 50.7335 13.488 50.7335 14.512V22H48.0215ZM62.8848 22.288C61.5888 22.288 60.4368 21.992 59.4288 21.4C58.4368 20.792 57.6448 19.976 57.0528 18.952C56.4768 17.928 56.1888 16.768 56.1888 15.472C56.1888 14.192 56.4768 13.04 57.0528 12.016C57.6288 10.992 58.4208 10.192 59.4288 9.616C60.4368 9.024 61.5888 8.728 62.8848 8.728C63.7648 8.728 64.5888 8.888 65.3568 9.208C66.1248 9.512 66.7888 9.936 67.3488 10.48C67.9248 11.024 68.3488 11.656 68.6208 12.376L66.2448 13.48C65.9728 12.808 65.5328 12.272 64.9248 11.872C64.3328 11.456 63.6528 11.248 62.8848 11.248C62.1488 11.248 61.4848 11.432 60.8928 11.8C60.3168 12.152 59.8608 12.656 59.5248 13.312C59.1888 13.952 59.0208 14.68 59.0208 15.496C59.0208 16.312 59.1888 17.048 59.5248 17.704C59.8608 18.344 60.3168 18.848 60.8928 19.216C61.4848 19.584 62.1488 19.768 62.8848 19.768C63.6688 19.768 64.3488 19.568 64.9248 19.168C65.5168 18.752 65.9568 18.2 66.2448 17.512L68.6208 18.64C68.3648 19.328 67.9488 19.952 67.3728 20.512C66.8128 21.056 66.1488 21.488 65.3808 21.808C64.6128 22.128 63.7808 22.288 62.8848 22.288ZM75.9035 22.288C74.9275 22.288 74.0715 22.072 73.3355 21.64C72.5995 21.192 72.0235 20.576 71.6075 19.792C71.2075 18.992 71.0075 18.072 71.0075 17.032V9.016H73.7195V16.792C73.7195 17.384 73.8395 17.904 74.0795 18.352C74.3195 18.8 74.6555 19.152 75.0875 19.408C75.5195 19.648 76.0155 19.768 76.5755 19.768C77.1515 19.768 77.6555 19.64 78.0875 19.384C78.5195 19.128 78.8555 18.768 79.0955 18.304C79.3515 17.84 79.4795 17.296 79.4795 16.672V9.016H82.1675V22H79.5995V19.456L79.8875 19.792C79.5835 20.592 79.0795 21.208 78.3755 21.64C77.6715 22.072 76.8475 22.288 75.9035 22.288ZM85.334 22V9.016H88.046V22H85.334ZM85.334 7.24V4.12H88.046V7.24H85.334ZM96.8328 22.144C95.4728 22.144 94.4168 21.76 93.6648 20.992C92.9128 20.224 92.5368 19.144 92.5368 17.752V11.464H90.2568V9.016H90.6168C91.2248 9.016 91.6968 8.84 92.0328 8.488C92.3688 8.136 92.5368 7.656 92.5368 7.048V6.04H95.2488V9.016H98.2008V11.464H95.2488V17.632C95.2488 18.08 95.3208 18.464 95.4648 18.784C95.6088 19.088 95.8408 19.328 96.1608 19.504C96.4808 19.664 96.8968 19.744 97.4088 19.744C97.5368 19.744 97.6808 19.736 97.8408 19.72C98.0008 19.704 98.1528 19.688 98.2968 19.672V22C98.0728 22.032 97.8248 22.064 97.5528 22.096C97.2808 22.128 97.0408 22.144 96.8328 22.144Z" fill="#032E32"/>
<path d="M13 5C13 6.65686 11.6569 8 10 8C8.34314 8 7 6.65686 7 5C7 3.34315 8.34314 2 10 2C11.6569 2 13 3.34315 13 5Z" fill="#032E32"/>
<path d="M0 19.529V8C0 8 5.45399 8 10 10.471C14.546 8 20 8 20 8V19.529C20 19.529 15.379 19.357 10 22C4.621 19.357 0 19.529 0 19.529Z" fill="#032E32"/>
</svg>
