<svg width="15" height="14" viewBox="0 0 15 14" fill="none" xmlns="http://www.w3.org/2000/svg">
<path d="M0.0766602 1.68554C0.0766602 1.21933 0.240386 0.834715 0.567824 0.531694C0.895263 0.228659 1.32095 0.0771484 1.84485 0.0771484C2.35941 0.0771484 2.77572 0.226323 3.09381 0.524701C3.42125 0.832393 3.58498 1.23332 3.58498 1.7275C3.58498 2.17505 3.42594 2.548 3.10785 2.84638C2.78041 3.15407 2.35005 3.30792 1.81678 3.30792H1.80275C1.28819 3.30792 0.871883 3.15407 0.553791 2.84638C0.235699 2.53869 0.0766602 2.15174 0.0766602 1.68554ZM0.259093 13.9233V4.58065H3.37448V13.9233H0.259093ZM5.10057 13.9233H8.21595V8.70652C8.21595 8.38017 8.25338 8.12842 8.32822 7.95127C8.45919 7.63425 8.658 7.36618 8.92463 7.14708C9.19127 6.92796 9.52572 6.81841 9.92801 6.81841C10.9758 6.81841 11.4997 7.52237 11.4997 8.9303V13.9233H14.6151V8.56666C14.6151 7.1867 14.2877 6.14009 13.6328 5.4268C12.9779 4.71351 12.1125 4.35687 11.0366 4.35687C9.82978 4.35687 8.88955 4.87435 8.21595 5.90932V5.93729H8.20192L8.21595 5.90932V4.58065H5.10057C5.11927 4.87901 5.12863 5.80674 5.12863 7.36386C5.12863 8.92097 5.11927 11.1074 5.10057 13.9233Z" fill="white"/>
</svg>
